# xmcd CD database file
#
# Track frame offsets:
#	150
#	26859
#	55566
#	80569
#	107768
#	127146
#	140226
#	154846
#	175154
#	184434
#	194084
#	199971
#	210423
#	224315
#	242003
#	266744
#	280079
#	293362
#	303729
#	328790
#
# Disc length: 4590 seconds
#
# Revision: 4
# Processed by: cddbd v1.5.2PL0 Copyright (c) Steve Scherf et al.
# Submitted via: CDex 1.51
#
DISCID=4111ec14
DTITLE=Various Artist - In the butchers backyard CD1
DYEAR=1993
DGENRE=Industrial
TTITLE0=Morthond - First gate
TTITLE1=Morthond - Second gate
TTITLE2=Morthond - Third gate
TTITLE3=Megaptera - Stroke
TTITLE4=Megaptera - Metal process in work
TTITLE5=Defekt - Ex cre mental pt.II
TTITLE6=Defekt - Intellekt: kollaps
TTITLE7=Defekt - Entschuldigung, wo ist mein kopf? Teil 3
TTITLE8=ConSono - Onus uteri
TTITLE9=ConSono - Nefarior
TTITLE10=ConSono - Insect dawn
TTITLE11=ConSono - White light
TTITLE12=Raison d'etre - Aprés nous le d luge II
TTITLE13=Raison d'etre - Memento mori
TTITLE14=Raison d'etre - Death brightens with sorrow
TTITLE15=Systema - Zyringe
TTITLE16=Systema - Lost in lies
TTITLE17=Systema - Deeper movements in the ocean
TTITLE18=Systema - Let me come inside
TTITLE19=En Halvkokt i Folie - Den mäktige Tor
EXTD=YEAR: 1993
EXTT0=
EXTT1=
EXTT2=
EXTT3=
EXTT4=
EXTT5=
EXTT6=
EXTT7=
EXTT8=
EXTT9=
EXTT10=
EXTT11=
EXTT12=
EXTT13=
EXTT14=
EXTT15=
EXTT16=
EXTT17=
EXTT18=
EXTT19=
PLAYORDER=
